<svg xmlns="http://www.w3.org/2000/svg" width="20" height="44"><path d="M18.1 24.23c-.11.31-.22.6-.33.88-.29.66-.63 1.27-1.02 1.84-.54.77-.98 1.3-1.32 1.59-.52.48-1.09.73-1.69.74-.43 0-.95-.12-1.56-.37-.61-.25-1.17-.37-1.68-.37-.54 0-1.11.12-1.73.37-.62.25-1.11.38-1.49.39-.58.02-1.15-.23-1.73-.76-.37-.32-.83-.87-1.38-1.65-.59-.83-1.08-1.79-1.46-2.89-.41-1.19-.61-2.34-.61-3.45 0-1.27.28-2.37.83-3.29.43-.74 1.01-1.32 1.73-1.75.72-.43 1.5-.65 2.34-.66.46 0 1.06.14 1.81.42.75.28 1.23.42 1.44.42.16 0 .69-.17 1.59-.5.85-.31 1.57-.43 2.16-.38 1.6.13 2.8.76 3.6 1.89-1.43.87-2.14 2.08-2.12 3.64.01 1.21.45 2.22 1.32 3.02.38.38.81.66 1.3.87zm-4.02-13.92c.01.13.02.25.02.38 0 .95-.35 1.84-1.04 2.66-.84.98-1.85 1.54-2.94 1.45-.01-.11-.02-.23-.02-.36 0-.91.4-1.89 1.1-2.69.35-.4.8-.74 1.34-1.01.55-.26 1.06-.41 1.54-.43z" fill="#333"/><path fill="none" d="M0 0h20v44H0z"/></svg>